HIERARCHY
ROOT Hips
{
	OFFSET 10.524628 107.211601 -0.883273
	CHANNELS 6 Xposition Yposition Zposition Xrotation Yrotation Zrotation
	JOINT Chest
	{
		OFFSET -1.450688 13.545708 -0.750668
		CHANNELS 3 Xrotation Yrotation Zrotation
		JOINT Chest2
		{
			OFFSET -5.291496 20.758728 0.376906
			CHANNELS 3 Xrotation Yrotation Zrotation
			JOINT Chest3
			{
				OFFSET -2.675528 14.460358 -2.561125
				CHANNELS 3 Xrotation Yrotation Zrotation
				JOINT Neck
				{
					OFFSET -3.386437 16.911530 -1.071522
					CHANNELS 3 Xrotation Yrotation Zrotation
					JOINT Head
					{
						OFFSET -1.211153 10.297409 1.524544
						CHANNELS 3 Xrotation Yrotation Zrotation
						End Site
						{
							OFFSET -1.221855 10.306503 1.452820
						}
					}
				}
				JOINT LeftCollar
				{
					OFFSET 1.999167 14.019165 1.127182
					CHANNELS 3 Xrotation Yrotation Zrotation
					JOINT LeftUpArm
					{
						OFFSET 14.438058 4.563171 -8.900517
						CHANNELS 3 Xrotation Yrotation Zrotation
						JOINT LeftLowArm
						{
							OFFSET 25.401798 20.401474 8.846234
							CHANNELS 3 Xrotation Yrotation Zrotation
							JOINT LeftHand
							{
								OFFSET 21.163437 19.337219 8.895360
								CHANNELS 3 Xrotation Yrotation Zrotation
								End Site
								{
									OFFSET 4.625381 4.226288 1.944122
								}
							}
						}
					}
				}
				JOINT RightCollar
				{
					OFFSET -6.097075 12.507950 2.861011
					CHANNELS 3 Xrotation Yrotation Zrotation
					JOINT RightUpArm
					{
						OFFSET -16.577484 -5.801575 -0.158259
						CHANNELS 3 Xrotation Yrotation Zrotation
						JOINT RightLowArm
						{
							OFFSET -7.296232 -14.896988 29.403728
							CHANNELS 3 Xrotation Yrotation Zrotation
							JOINT RightHand
							{
								OFFSET 13.434632 22.711395 14.305880
								CHANNELS 3 Xrotation Yrotation Zrotation
								End Site
								{
									OFFSET 2.936255 4.963821 3.126667
								}
							}
						}
					}
				}
			}
		}
	}
	JOINT LeftUpLeg
	{
		OFFSET 9.960354 1.078545 0.217274
		CHANNELS 3 Xrotation Yrotation Zrotation
		JOINT LeftLowLeg
		{
			OFFSET 14.089401 -45.100525 3.379733
			CHANNELS 3 Xrotation Yrotation Zrotation
			JOINT LeftFoot
			{
				OFFSET 8.304173 -42.270096 -12.035327
				CHANNELS 3 Xrotation Yrotation Zrotation
				JOINT LeftToe
				{
					OFFSET 0.990620 -19.151154 13.849619
					CHANNELS 3 Xrotation Yrotation Zrotation
					End Site
					{
						OFFSET -1.925560 -6.237263 22.736485
					}
				}
			}
		}
	}
	JOINT RightUpLeg
	{
		OFFSET -9.960338 -1.078743 -0.217263
		CHANNELS 3 Xrotation Yrotation Zrotation
		JOINT RightLowLeg
		{
			OFFSET -20.490025 -42.635036 2.534603
			CHANNELS 3 Xrotation Yrotation Zrotation
			JOINT RightFoot
			{
				OFFSET -16.218351 -36.021652 -20.975821
				CHANNELS 3 Xrotation Yrotation Zrotation
				JOINT RightToe
				{
					OFFSET -9.126823 -20.206837 8.242661
					CHANNELS 3 Xrotation Yrotation Zrotation
					End Site
					{
						OFFSET -7.170998 -9.900604 20.251194
					}
				}
			}
		}
	}
}
MOTION
Frames: 11
Frame Time: 0.033333
-5.449472 105.462723 -1.111719 12.218494 -0.975836 -7.965637 -7.529341 -1.276395 -4.550906 5.507308 -0.110614 4.696250 -0.110549 -7.955238 -4.227548 -9.547942 -3.783364 7.098631 -0.000000 0.000001 0.000001 0.653639 3.151149 -32.685713 12.595183 -2.346675 -74.144927 25.363305 -2.936712 3.236515 0.000003 0.000002 -0.000001 13.011195 -9.847733 19.163359 41.091579 -4.168411 12.665076 66.972969 -29.335881 -0.809797 0.000003 0.000006 0.000001 -2.774465 -1.639207 -4.580664 -8.749407 2.280587 3.357255 -5.910128 4.770698 -2.397681 0.000002 -0.000000 -0.000001 -3.177867 3.035197 31.778121 -19.303631 1.263477 0.985318 -10.946982 4.100239 -1.930659 0.000001 -0.000000 0.000003 
-5.442835 105.462021 -1.107989 12.776145 -1.069590 -7.942279 -8.286049 -1.371463 -4.480875 5.278785 -0.161421 4.755742 0.343772 -7.914183 -4.387920 -9.857560 -3.909608 7.175172 -0.000001 0.000000 -0.000000 0.655363 3.211961 -32.928260 12.668161 -2.561624 -73.856106 25.614700 -3.055843 3.808680 -0.000001 -0.000000 -0.000000 13.071362 -9.852620 19.243325 40.916573 -3.996151 12.436966 66.913751 -29.474787 -0.855116 -0.000003 0.000005 -0.000003 -3.168283 -1.742194 -4.637053 -8.971079 2.261035 3.373908 -5.891486 4.812987 -2.297832 0.000000 -0.000001 -0.000000 -3.731520 3.015894 31.708183 -19.599433 1.254312 0.975965 -10.931042 3.906015 -2.142885 0.000003 0.000001 0.000004 
-5.436205 105.472046 -1.110513 12.863752 -0.958687 -7.990007 -8.687540 -1.421069 -4.424520 6.047329 0.031693 4.691285 -0.205251 -7.893676 -4.357962 -9.811016 -3.946581 7.190018 -0.000001 -0.000001 0.000000 0.613878 3.245407 -33.053440 12.738699 -2.327438 -73.753694 25.808315 -3.069719 3.602294 0.000002 0.000002 -0.000001 13.244847 -10.474793 19.738639 40.927132 -4.356194 12.298832 67.177438 -29.405757 -0.967573 -0.000001 0.000006 -0.000003 -3.532506 -1.854880 -4.643756 -8.481486 2.252918 3.384677 -5.990060 4.720321 -2.544378 -0.000000 -0.000001 0.000000 -3.826396 3.054067 31.619053 -19.509302 1.194353 1.149498 -11.059516 3.817523 -2.211754 0.000001 0.000000 -0.000001 
-5.429372 105.480064 -1.115507 12.613838 -0.925141 -8.008734 -8.023276 -1.346393 -4.450983 5.658164 -0.037779 4.729494 -0.082539 -7.999836 -4.325455 -10.223469 -3.959851 7.250960 -0.000000 0.000001 0.000001 0.680641 3.007510 -33.003939 12.747913 -2.207173 -73.694968 25.775607 -3.171296 3.541269 0.000002 -0.000005 -0.000001 13.130970 -9.860132 19.508128 40.783790 -4.287908 12.239986 67.418284 -29.503279 -0.699447 -0.000001 0.000004 0.000004 -3.284231 -1.814149 -4.593460 -8.479280 2.224527 3.288590 -6.101470 4.742423 -2.719417 0.000002 -0.000000 -0.000001 -3.468166 3.084992 31.585042 -19.539950 1.248587 1.197109 -10.832734 3.637564 -2.266248 0.000003 0.000002 0.000001 
-5.417823 105.486084 -1.118371 12.390277 -1.067844 -7.975992 -7.515058 -1.297557 -4.492477 5.844926 0.019863 4.687285 -0.382740 -8.112258 -4.240775 -10.426909 -3.922646 7.190078 0.000001 -0.000001 -0.000000 0.540898 3.500051 -33.176466 12.736740 -2.450436 -73.381497 25.627022 -3.229327 3.303963 -0.000001 -0.000000 0.000002 13.033400 -9.284496 19.297308 40.690671 -4.166726 12.175187 67.253669 -29.391834 -0.519555 0.000002 0.000007 0.000003 -2.979949 -1.804842 -4.647589 -8.601349 2.182668 3.296017 -6.089015 4.977598 -2.566057 -0.000001 0.000000 0.000000 -3.203490 3.143612 31.535325 -19.366093 1.197258 1.265014 -10.739600 3.685622 -2.215480 -0.000003 0.000004 0.000001 
-5.409204 105.486183 -1.121210 12.724087 -1.010422 -7.994250 -7.625828 -1.311121 -4.527078 5.861411 0.004548 4.739870 -0.531026 -7.784215 -4.283376 -10.625054 -4.122662 7.414889 -0.000001 -0.000002 -0.000000 0.748266 3.118284 -33.065786 12.775365 -2.545136 -73.373334 25.820731 -3.455938 3.540531 0.000000 -0.000000 0.000000 13.140896 -9.788412 19.484827 40.660581 -4.131824 12.084265 67.077184 -29.231318 -0.662693 -0.000001 0.000002 -0.000001 -3.237150 -1.883056 -4.609454 -8.450673 2.176947 3.231631 -6.113824 5.040323 -2.547537 -0.000001 0.000000 -0.000001 -3.522272 3.141979 31.564503 -19.215515 1.157740 1.265710 -10.906724 3.798214 -2.179943 -0.000003 0.000002 0.000001 
-5.399598 105.489067 -1.126513 13.116950 -0.921244 -8.060157 -8.030047 -1.358893 -4.420310 5.962048 0.049575 4.679957 -0.516681 -7.766349 -4.271561 -10.931310 -4.209743 7.497022 0.000001 -0.000001 -0.000000 0.945165 2.703585 -32.974910 12.684351 -2.978978 -73.319110 25.493544 -3.245749 3.652449 -0.000003 -0.000003 -0.000002 13.219764 -10.124057 19.532427 40.573089 -3.943429 12.064191 67.034946 -29.255592 -0.670215 0.000007 0.000002 0.000003 -3.716743 -1.939648 -4.540860 -8.443746 2.144210 3.196969 -6.122715 5.042758 -2.606673 -0.000000 -0.000001 0.000001 -4.097273 3.087633 31.601076 -19.064871 1.155351 1.306785 -11.034602 3.568140 -2.406831 -0.000001 0.000003 -0.000000 
-5.382741 105.488220 -1.127191 13.134269 -1.365469 -7.916842 -7.829715 -1.328839 -4.496249 5.064993 -0.118080 4.646337 0.168615 -7.468245 -4.217042 -11.103345 -4.179043 7.376589 0.000001 0.000000 -0.000000 0.700491 3.105986 -32.829683 12.589242 -2.717376 -73.650715 25.321072 -3.296058 3.318808 -0.000002 -0.000003 -0.000002 12.968827 -9.831040 19.138544 40.609347 -3.818862 12.323550 67.444922 -29.238698 -0.375729 0.000003 0.000003 0.000001 -3.376933 -1.886633 -4.664117 -8.853926 2.188447 3.174375 -6.251515 5.331274 -2.616987 0.000002 -0.000001 0.000001 -4.025629 3.069498 31.454425 -19.130474 1.136393 1.210568 -10.633603 3.828758 -2.090494 0.000000 0.000002 0.000001 
-5.369947 105.487854 -1.127863 13.016533 -1.158552 -8.018733 -7.626588 -1.325028 -4.431611 5.394309 -0.065299 4.695915 -0.253361 -7.878553 -4.226574 -10.944820 -4.101697 7.372592 0.000001 -0.000001 -0.000000 0.592144 3.651181 -32.831319 12.718622 -2.567211 -73.767874 25.383596 -3.078781 3.097069 -0.000004 -0.000001 -0.000002 12.956918 -9.618735 18.966365 40.640746 -3.712474 12.287530 67.380854 -29.333251 -0.437337 -0.000002 0.000005 -0.000003 -3.286139 -1.851485 -4.566379 -8.798205 2.174248 3.175866 -6.150109 5.053540 -2.596918 0.000001 -0.000001 0.000000 -3.689231 3.070727 31.529485 -19.382747 1.146000 1.237115 -10.468917 3.862050 -2.042657 -0.000003 0.000001 -0.000003 
-5.360384 105.484962 -1.125205 13.116994 -1.085979 -8.065141 -7.715467 -1.328210 -4.411557 5.598438 -0.052614 4.722417 -0.269931 -7.914444 -4.252527 -11.330900 -4.243088 7.412748 -0.000000 -0.000000 0.000000 0.467123 3.755916 -32.708885 12.574225 -2.718054 -73.824038 25.269724 -3.058217 2.970563 0.000005 0.000005 -0.000001 12.855126 -9.792263 18.992202 40.403031 -3.622674 12.291889 67.717890 -29.192720 -0.304810 -0.000001 0.000004 0.000003 -3.201296 -1.838349 -4.491890 -8.855876 2.213228 3.153646 -6.063121 4.830315 -2.523851 -0.000001 -0.000000 0.000000 -3.706383 3.070481 31.602602 -19.532466 1.140454 1.161629 -10.581067 3.777694 -2.177636 -0.000001 0.000002 -0.000002 
-5.348108 105.483025 -1.122164 13.157787 -1.425458 -8.003953 -7.643216 -1.328005 -4.416731 4.855116 -0.115511 4.581331 0.252741 -7.487809 -4.147523 -11.490311 -4.266106 7.508557 0.000000 0.000000 -0.000000 0.724710 3.437158 -32.714192 12.617514 -2.871063 -73.658420 25.422476 -3.187215 3.110855 -0.000001 -0.000002 0.000003 13.058250 -9.997462 19.211509 40.158548 -3.520594 11.978294 67.187266 -29.113832 -0.502250 0.000003 0.000008 0.000001 -3.160757 -1.809447 -4.570778 -9.038563 2.162972 3.228318 -6.091440 5.195680 -2.305543 -0.000002 -0.000000 -0.000001 -3.675702 3.057026 31.575958 -19.619288 1.191805 1.056667 -10.414699 4.070859 -1.938021 -0.000001 0.000003 0.000001 
